# xmcd CD database file
#
# Track frame offsets:
#	150
#	21540
#	46845
#	75872
#	101187
#	143577
#	165100
#	206362
#	224830
#	254527
#
# Disc length: 3835 seconds
#
# Revision: 0
# Processed by: cddbd v1.5.2PL0 Copyright (c) Steve Scherf et al.
# Submitted via: CDex 1.70beta2
#
DISCID=830ef90a
DTITLE=Chet Baker Trio - Chet's Choice
DYEAR=1985
DGENRE=Jazz
TTITLE0=If I Should Lose You
TTITLE1=Sad Walk
TTITLE2=How Deep Is The Ocean
TTITLE3=Doodlin'
TTITLE4=My Foolish Heart
TTITLE5=Conception
TTITLE6=Love For Sale
TTITLE7=Adriano
TTITLE8=Blues In The Closet
TTITLE9=Stella By Starlight
EXTD=YEAR: 1985
EXTT0=
EXTT1=
EXTT2=
EXTT3=
EXTT4=
EXTT5=
EXTT6=
EXTT7=
EXTT8=
EXTT9=
PLAYORDER=
